<svg height="506pt" viewBox="0 -133 506.01855 506" width="506pt" xmlns="http://www.w3.org/2000/svg"><path d="m451.519531 131.007812h-148.394531l-111.523438-128.328124c-1.304687-1.597657-3.222656-2.570313-5.28125-2.6718755h-65.078124c-2.566407.0507813-4.90625 1.4804685-6.125 3.7421875-1.234376 2.300781-1.15625 5.085938.199218 7.316406l75.328125 119.941406h-102.152343l-37.539063-53.824218c-1.289063-1.921875-3.421875-3.101563-5.734375-3.175782h-38.21875c-2.253906.019532-4.363281 1.117188-5.675781 2.945313-1.3125002 1.832031-1.675781 4.179687-.972657 6.320313l34 102.75c.691407 2.09375 2.328126 3.738281 4.417969 4.441406l145.597657 49.050781c.714843.285156 1.464843.449219 2.230468.492187h264.921875c30.097657 0 54.5-24.398437 54.5-54.5 0-30.097656-24.402343-54.5-54.5-54.5zm36.988281 38h-43.46875c-5.027343-.132812-9.027343-4.25-9.019531-9.277343v-14.722657h15.5c15.964844.070313 30.421875 9.449219 36.988281 24zm-305.371093-155 129.710937 149h-85.230468l-93.699219-149zm268.382812 212h-263.777343l-141.199219-47.613281-29.855469-90.386719h24.886719l37.539062 53.828126c1.289063 1.917968 3.421875 3.101562 5.734375 3.171874h114.597656l18.378907 28.96875c1.308593 1.980469 3.558593 3.128907 5.925781 3.03125h104.476562c2.726563.042969 5.222657-1.523437 6.371094-4 1.140625-2.433593.707032-5.308593-1.089844-7.304687l-18.1875-20.695313h106.699219v14.722657c0 12.757812 10.265625 23.136719 23.019531 23.277343h46.914063c.050781 1 .085937 1.652344.085937 2.5-.027343 22.363282-18.15625 40.484376-40.519531 40.5zm0 0"/></svg>