<svg height="486pt" viewBox="0 -105 486.00386 486" width="486pt" xmlns="http://www.w3.org/2000/svg"><path d="m454.925781 109.8125c-.65625-.632812-1.433593-1.128906-2.28125-1.464844l-31.71875-47.390625c-7.867187-11.878906-21.183593-19-35.429687-18.949219h-64.496094v-35.347656c.035156-1.796875-.671875-3.53125-1.957031-4.789062-1.28125-1.261719-3.03125-1.933594-4.828125-1.8632815h-307.363282c-1.804687-.0742187-3.558593.5976565-4.851562 1.8554685-1.296875 1.257813-2.0195312 2.992188-2 4.796875v218.074219c-.0898438 3.890625 2.964844 7.128906 6.851562 7.273437h13.535157c3.375 25.539063 25.148437 44.621094 50.90625 44.621094 25.761719 0 47.535156-19.082031 50.910156-44.621094h230.386719c3.378906 25.53125 25.152344 44.613282 50.90625 44.613282s47.527344-19.082032 50.90625-44.613282h24.75c3.886718-.144531 6.941406-3.382812 6.847656-7.273437v-66.75c.003906-11.523437-4.65625-22.558594-12.921875-30.59375zm-69.429687-53.804688c9.570312-.011718 18.503906 4.792969 23.773437 12.78125l26.207031 39.21875h-114.476562v-52zm-371.496094-42h293v204h-184.863281c-3.609375-25.304687-25.28125-44.105468-50.84375-44.105468s-47.230469 18.800781-50.839844 44.105468h-6.453125zm57.292969 248.34375c-20.632813 0-37.363281-16.726562-37.363281-37.363281 0-20.632812 16.730468-37.363281 37.363281-37.363281 20.636719 0 37.363281 16.730469 37.363281 37.363281-.019531 20.625-16.738281 37.34375-37.363281 37.363281zm332.199219 0c-20.632813 0-37.363282-16.726562-37.363282-37.363281 0-20.632812 16.730469-37.363281 37.363282-37.363281 20.636718 0 37.367187 16.730469 37.367187 37.363281-.023437 20.625-16.734375 37.335938-37.359375 37.363281zm68.507812-44.34375h-17.660156c-3.609375-25.308593-25.28125-44.109374-50.84375-44.109374s-47.234375 18.800781-50.839844 44.109374h-31.65625v-96h126.242188l16.117187 15.539063c5.535156 5.359375 8.652344 12.734375 8.640625 20.4375zm0 0"/></svg>