<svg height="475pt" viewBox="0 -4 475.996 475" width="475pt" xmlns="http://www.w3.org/2000/svg"><path d="m412 291.8125c0-3.867188-3.132812-7-7-7h-62c-3.867188 0-7 3.132812-7 7v52c0 3.867188 3.132812 7 7 7h62c3.867188 0 7-3.132812 7-7zm-62 7h48v38h-48zm0 0"/><path d="m139 291.8125c0-3.867188-3.132812-7-7-7h-62c-3.867188 0-7 3.132812-7 7v52c0 3.867188 3.132812 7 7 7h62c3.867188 0 7-3.132812 7-7zm-15 45h-47v-38h47zm0 0"/><path d="m303 295.8125c0-3.867188-3.132812-7-7-7h-116c-3.867188 0-7 3.132812-7 7v51c0 3.867188 3.132812 7 7 7h116c3.867188 0 7-3.132812 7-7zm-15 44h-101v-37h101zm0 0"/><path d="m469.421875 29.8125h-31.871094l.007813-21.046875c-.003906-1.84375-.742188-3.609375-2.050782-4.90625-1.308593-1.296875-3.082031-2.015625-4.921874-2.003906l-385.917969-1.359375c-1.863281.015625-3.644531.757812-4.96875 2.066406-1.3125 1.242188-2.054688 2.96875-2.058594 4.777344l-.007813 22.472656h-31.054687c-3.863281 0-6.578125 3.519531-6.578125 7.382812v100.507813c0 3.867187 2.714844 7.109375 6.578125 7.109375h31.007813l-.03125 77.675781c-.132813.527344-.203126 1.066407-.207032 1.609375 0 .5625.066406 1.125.207032 1.671875l-.074219 177c-.003907 3.875 3.125 7.023438 7 7.042969h3.519531v50.265625c0 3.867187 3.53125 6.734375 7.398438 6.734375h73.242187c3.867187 0 7.359375-2.867188 7.359375-6.734375v-50.265625h203v50.265625c.140625 3.863281 3.382812 6.878906 7.242188 6.734375h73.246093c1.777344.042969 3.492188-.664062 4.730469-1.941406 1.234375-1.277344 1.882812-3.015625 1.78125-4.792969v-50.265625h4.398438c3.871093-.007812 7.003906-3.148438 7-7.019531l.074218-176.019531c.042969-.300782.066406-.609376.066406-.914063s-.023437-.605469-.066406-.90625l.027344-80.140625h31.917969c3.863281 0 6.578125-3.242188 6.578125-7.109375v-100.507813c.003906-3.863281-2.710938-7.382812-6.574219-7.382812zm-46.023437 366h-1.128907c-.855469 0-1.800781-.578125-2.785156-.578125-.988281 0-1.933594.578125-2.785156.578125h-358.886719c-.753906 0-1.566406-.4375-2.417969-.4375-.847656 0-1.660156.4375-2.414062.4375h-1.5l.070312-164.660156 183.539063.808594c1.5.539062 3.140625.542968 4.644531.011718l183.734375.839844zm-372.0625-178.679688-.050782-143.910156 178.714844.800782v143.90625zm192.664062.859376v-143.90625l179.3125.800781-.167969 143.902343zm179.554688-202.0625-.015626 44.957031-371.917968-1.664063.019531-44.652344zm-409.554688 114.882812v-87h23.628906l-.011718 20.273438c-.359376 1.316406-.359376 2.707031 0 4.023437l-.027344 62.703125zm108 322h-60v-43h60zm290 0h-59v-43h59zm50-322h-24.488281l.023437-62.707031c0-.035157.003906-.097657.003906-.132813 0-.03125 0-.285156-.003906-.328125l.011719-23.832031h24.453125zm0 0"/></svg>