<svg height="490pt" viewBox="0 -91 490 490" width="490pt" xmlns="http://www.w3.org/2000/svg"><path d="m442.75 0h-395.5c-26.023438.0820312-47.113281 21.128906-47.25 47.152344v205.703125c.105469 3.941406 3.304688 7.097656 7.25 7.144531h32.109375c2.78125 27.257812 25.742187 47.992188 53.140625 47.992188 27.402344 0 50.359375-20.734376 53.144531-47.992188h203.710938c2.789062 27.257812 25.746093 47.988281 53.144531 47.988281s50.355469-20.730469 53.144531-47.988281h27.105469c3.941406-.046875 7.144531-3.199219 7.25-7.140625v-205.707031c-.136719-26.023438-21.226562-47.0703128-47.25-47.152344zm33.25 47.152344v94.847656h-91.25c-6.335938-.011719-12.40625-2.550781-16.863281-7.054688-4.457031-4.503906-6.9375-10.597656-6.886719-16.933593v-104.011719h81.75c18.296875.074219 33.125 14.859375 33.25 33.152344zm-219 60.847656v-53h90v53zm-204 0v-53h80v53zm94-53h96v53h-96zm-54.5 238.847656c-21.769531 0-39.417969-17.648437-39.417969-39.417968 0-21.769532 17.648438-39.417969 39.417969-39.417969s39.417969 17.648437 39.417969 39.417969c-.027344 21.757812-17.660157 39.390624-39.417969 39.417968zm310 0c-21.769531 0-39.417969-17.648437-39.417969-39.417968 0-21.769532 17.648438-39.417969 39.417969-39.417969s39.417969 17.648437 39.417969 39.417969c-.027344 21.757812-17.660157 39.390624-39.417969 39.417968zm52.722656-47.847656c-4.203125-25.855469-26.527344-44.847656-52.722656-44.847656-26.191406 0-48.519531 18.992187-52.71875 44.847656h-204.5625c-4.203125-25.851562-26.527344-44.839844-52.71875-44.839844s-48.515625 18.988282-52.71875 44.839844h-25.78125v-198.847656c.125-18.292969 14.953125-33.078125 33.25-33.152344h299.75v27h-300.808594c-3.863281 0-7.191406 2.722656-7.191406 6.589844v67.910156c0 3.867188 3.328125 6.5 7.191406 6.5h300.832032c2.226562 19 18.292968 34 37.726562 34h91.25v90zm0 0"/></svg>