<svg height="482pt" viewBox="0 -53 482.00121 482" width="482pt" xmlns="http://www.w3.org/2000/svg"><path d="m467.507812 193.6875-34.71875-14.917969-29-56.375c-7.019531-13.746093-21.152343-22.398437-36.589843-22.390625h-59.199219c-3.890625.058594-7.007812 3.238282-7 7.128906v74.453126l-182.855469-179.675782c-1.320312-1.257812-3.082031-1.9453122-4.90625-1.90624975h-69.886719c-2.601562-.07031245-5.015624 1.35546875-6.207031 3.66796875-1.195312 2.3125-.957031 5.105469.605469 7.183594l9.25 13.011719v74.601562c0 11.300781 8 20.839844 19 23.683594v13.730468c.082031 3.898438 3.277344 7.011719 7.175781 7 7.101563 0 12.957031 4.828126 12.957031 10.765626s-5.730468 10.765624-12.824218 10.765624-12.847656-4.832031-12.847656-10.769531c0-3.859375-3.128907-6.992187-6.992188-6.992187-3.859375 0-6.992188 3.132812-6.992188 6.992187 0 13.65625 12.058594 24.769531 26.871094 24.769531 14.816406 0 26.695313-11.113281 26.695313-24.769531 0-11.425781-8.042969-21.066406-20.042969-23.914062v-7.582031c11-2.699219 18.976562-11.253907 19.738281-21.828126l93.992188 134.683594h-186.9375c-1.789063-.089844-3.535157.566406-4.820313 1.8125-1.289062 1.246094-1.9999998 2.972656-1.972656 4.761719v51.824219c0 13.289062 10.605469 24.601562 23.902344 24.601562h10.046875c-.269531 1.921875-.386719 3.859375-.355469 5.800782-.019531 29.078124 23.542969 52.667968 52.621094 52.683593 29.082031.019531 52.667968-23.542969 52.6875-52.621093.027344-1.960938-.089844-3.917969-.359375-5.859376h196.613281c-.269531 1.921876-.386719 3.859376-.355469 5.800782.105469 28.992187 23.628907 52.441406 52.621094 52.457031 28.992187.019531 52.542969-23.402344 52.6875-52.394531.027344-1.960938-.089844-3.921875-.359375-5.867188h18.351562c13.289063 0 23.898438-11.308594 23.898438-24.601562v-77.566406c.050781-9.621094-5.65625-18.339844-14.492188-22.148438zm-100.308593-79.683594c10.183593-.039062 19.53125 5.640625 24.183593 14.699219l24.90625 48.300781h-101.289062v-63zm-281.199219-15.539062c0 5.816406-5.535156 10.550781-12.5 10.550781s-12.5-4.734375-12.5-10.550781v-54.53125l25 36.203125zm-29.230469-84.460938h53.601563l190.628906 187.210938v33.789062h-90.199219zm29.476563 348.199219c-21.347656 0-38.65625-17.304687-38.65625-38.65625 0-21.347656 17.308594-38.65625 38.65625-38.652344 21.351562 0 38.65625 17.304688 38.65625 38.65625-.027344 21.335938-17.316406 38.628907-38.65625 38.652344zm0-90.8125c-21.9375 0-40.777344 12.609375-48.679688 32.609375h-13.664062c-5.570313 0-9.902344-5.027344-9.902344-10.597656v-44.398438h287v55h-166.070312c-7.902344-20-26.742188-32.613281-48.683594-32.613281zm301.207031 90.8125c-21.347656 0-38.65625-17.304687-38.65625-38.65625 0-21.347656 17.308594-38.652344 38.65625-38.652344s38.65625 17.304688 38.65625 38.652344c-.027344 21.339844-17.316406 38.632813-38.65625 38.65625zm80.546875-68.800781c0 5.570312-4.324219 10.601562-9.898438 10.601562h-21.96875c-7.902343-20-26.742187-32.613281-48.683593-32.613281-21.9375 0-40.773438 12.613281-48.675781 32.613281h-23.773438v-113h111.335938l35.648437 15.445313c3.699219 1.648437 6.066406 5.339843 6.015625 9.386719zm0 0"/></svg>