<svg height="492pt" viewBox="0 -61 492.00328 492" width="492pt" xmlns="http://www.w3.org/2000/svg"><path d="m462.933594 130.917969-38.515625-104.09375c-5.960938-16.03125-21.210938-26.707031-38.316407-26.824219h-273.425781c-17.105469.117188-32.355469 10.792969-38.316406 26.824219l-38.074219 102.839843-16.148437 15.191407c-12.839844 11.003906-20.2031252 27.089843-20.13281275 44v173.828125c-.05859375 1.886718.62499975 3.71875 1.89843775 5.109375 1.238281 1.351562 2.96875 2.144531 4.800781 2.207031h95.945313c3.996093-.113281 7.21875-3.320312 7.355468-7.316406v-48.683594h272v48.683594c.136719 3.996094 3.351563 7.195312 7.347656 7.316406h95.941407c3.867187 0 6.710937-3.453125 6.710937-7.316406v-177.699219c.027344-15.800781-6.402344-30.921875-17.800781-41.863281zm-375.445313-99.097657c3.898438-10.578124 13.910157-17.664062 25.1875-17.820312h273.425781c11.277344.15625 21.289063 7.242188 25.1875 17.820312l35.164063 95.179688h-394.125zm8.515625 324.179688h-82v-42h82zm300 0v-42h82v42zm82-84.917969v28.917969h-464v-111.144531c-.066406-12.84375 5.539063-25.0625 15.316406-33.390625.078126-.070313.085938-.007813.164063-.078125l15.539063-14.386719h407.921874l11.320313 11.96875c.097656.105469.054687.140625.160156.238281 8.699219 8.277344 13.609375 19.765625 13.578125 31.773438zm0 0"/><path d="m117.980469 206h-42.5c-14.359375 0-26 11.640625-26 26s11.640625 26 26 26h42.5c14.359375 0 26-11.640625 26-26s-11.640625-26-26-26zm0 38h-42.5c-6.625 0-12-5.371094-12-12 0-6.625 5.375-12 12-12h42.5c6.628906 0 12 5.375 12 12 0 6.628906-5.371094 12-12 12zm0 0"/><path d="m443.003906 231.101562c0-14.414062-11.6875-26.101562-26.101562-26.101562h-42.800782c-14.414062 0-26.097656 11.6875-26.097656 26.101562v.800782c0 14.414062 11.683594 26.097656 26.097656 26.097656h42.800782c14.414062 0 26.101562-11.683594 26.101562-26.097656zm-14 .800782c0 6.683594-5.417968 12.097656-12.101562 12.097656h-42.800782c-6.679687 0-12.097656-5.414062-12.097656-12.097656v-.800782c0-6.683593 5.417969-12.101562 12.097656-12.101562h42.800782c6.683594 0 12.101562 5.417969 12.101562 12.101562zm0 0"/><path d="m316.003906 214c0-3.863281-3.132812-7-7-7h-125c-3.867187 0-7 3.136719-7 7v37c0 3.867188 3.132813 7 7 7h125c3.867188 0 7-3.132812 7-7zm-15 30h-110v-23h110zm0 0"/></svg>