<svg height="492pt" viewBox="0 -69 492 492" width="492pt" xmlns="http://www.w3.org/2000/svg"><path d="m477.953125 182.558594-32.453125-13.898438-27.117188-52.542968c-6.679687-13-20.089843-21.15625-34.707031-21.113282h-55.398437c-3.914063-.042968-7.144532 3.042969-7.277344 6.953125v119.046875h-313.773438c-3.867187-.113281-7.101562 2.921875-7.226562 6.792969v48.507813c0 12.683593 10.550781 22.699218 23.234375 22.699218h8.898437c-.179687 2-.273437 3.601563-.273437 5.363282.011719 27.464843 22.285156 49.722656 49.75 49.710937 27.46875-.007813 49.726563-22.285156 49.714844-49.75 0-1.757813-.09375-3.324219-.273438-5.324219h222.128907c-.179688 2-.277344 3.601563-.277344 5.363282-.070313 17.820312 9.398437 34.316406 24.820312 43.246093 15.421875 8.925781 34.445313 8.917969 49.859375-.019531 15.417969-8.941406 24.875-25.445312 24.785157-43.265625 0-1.757813-.097657-3.324219-.273438-5.324219h16.671875c12.683594 0 23.234375-10.015625 23.234375-22.699218v-72.601563c-.039062-9.21875-5.5625-17.535156-14.046875-21.144531zm-94.277344-73.554688c9.359375-.050781 17.953125 5.160156 22.234375 13.480469l22.980469 44.519531h-93.890625v-58zm-302.082031 231.246094c-19.734375 0-35.730469-15.996094-35.734375-35.730469 0-19.734375 16-35.730469 35.734375-35.734375 19.734375 0 35.730469 16 35.730469 35.734375-.023438 19.722657-16.003907 35.707031-35.730469 35.730469zm0-85.769531c-20.046875-.015625-38.140625 12.023437-45.871094 30.523437h-12.488281c-4.964844 0-9.234375-3.734375-9.234375-8.699218v-41.300782h307v50h-193.539062c-7.726563-18.5-25.820313-30.539062-45.867188-30.523437zm321.042969 85.769531c-19.734375 0-35.730469-15.996094-35.730469-35.730469s15.996094-35.734375 35.730469-35.734375 35.730469 16 35.730469 35.734375c-.019532 19.722657-16.003907 35.707031-35.730469 35.730469zm75.363281-63.945312c0 4.964843-4.269531 8.699218-9.234375 8.699218h-20.257813c-7.742187-18.488281-25.828124-30.523437-45.871093-30.523437s-38.128907 12.035156-45.867188 30.523437h-21.769531v-104h103.9375l33.492188 14.371094c3.34375 1.429688 5.527343 4.695312 5.570312 8.328125zm0 0"/><path d="m134.027344 161.003906h31.074218c3.863282 0 7-3.132812 7-7 0-3.867187-3.136718-7-7-7h-31.074218c-3.867188 0-7 3.132813-7 7 0 3.867188 3.132812 7 7 7zm0 0"/><path d="m134.027344 168.003906c-3.867188 0-7 3.132813-7 7 0 3.867188 3.132812 7 7 7h47.429687c3.867188 0 7-3.132812 7-7 0-3.867187-3.132812-7-7-7zm0 0"/><path d="m233.199219 161.003906h31.074219c3.867187 0 7-3.132812 7-7 0-3.867187-3.132813-7-7-7h-31.074219c-3.863281 0-7 3.132813-7 7 0 3.867188 3.136719 7 7 7zm0 0"/><path d="m233.199219 168.003906c-3.863281 0-7 3.132813-7 7 0 3.867188 3.136719 7 7 7h47.429687c3.867188 0 7-3.132812 7-7 0-3.867187-3.132812-7-7-7zm0 0"/><path d="m9.101562 212.003906h98.941407c.039062 0 .074219 0 .113281-.007812.039062-.003906.074219.007812.113281.007812h98.945313c.039062 0 .074218 0 .113281-.007812.039063-.003906.074219.007812.113281.007812h98.945313c3.863281 0 6.613281-3.300781 6.613281-7.160156v-98.941406c.085938-1.804688-.574219-3.5625-1.828125-4.867188-1.25-1.304687-2.980469-2.039062-4.785156-2.03125h-42.386719v-92.246094c-.054688-1.851562-.847656-3.605468-2.199219-4.871093-1.351562-1.269531-3.148437-1.9453128-5-1.88281275h-98.945312c-.039063 0-.074219 0-.113281.00781255-.039063.0039062-.074219-.00781255-.113282-.00781255h-98.945312c-1.796875-.04296875-3.53125.65624975-4.796875 1.93359375s-1.949219 3.023438-1.886719 4.820312v92.246094h-42.898438c-3.867187-.054687-7.046874 3.035156-7.101562 6.898438v98.945312c.035156 3.914063 3.183594 7.089844 7.101562 7.15625zm40.898438-99h17v7.550782l-6.164062-2.179688c-1.5-.527344-3.132813-.527344-4.628907 0l-6.207031 2.179688zm198 0h17v7.550782l-5.992188-2.179688c-1.527343-.527344-3.1875-.527344-4.710937 0l-6.300781 2.179688zm-99 0h17v7.550782l-6.078125-2.179688c-1.511719-.527344-3.160156-.527344-4.671875 0l-6.25 2.179688zm51 85h-85v-85h20v17.425782c.050781 2.289062 1.191406 4.414062 3.070312 5.722656 1.878907 1.304687 4.269532 1.632812 6.429688.882812l13.230469-4.636718 13.226562 4.636718c2.09375.753906 4.429688.417969 6.226563-.894531 1.816406-1.328125 2.867187-3.460937 2.816406-5.710937v-17.425782h20zm99 0h-85v-85h20v17.425782c.085938 2.292968 1.25 4.414062 3.140625 5.714843s4.285156 1.628907 6.460937.890625l13.265626-4.636718 13.242187 4.636718c.746094.261719 1.535156.394532 2.328125.394532 1.382812 0 2.726562-.453126 3.832031-1.289063 1.792969-1.335937 2.8125-3.472656 2.730469-5.710937v-17.425782h20zm-100-184h17v7.410156l-6.285156-2.183593c-1.476563-.523438-3.089844-.523438-4.566406 0l-6.148438 2.183593zm-34 0h20v17.285156c-.046875 2.253907 1.015625 4.390626 2.84375 5.707032 1.832031 1.320312 4.191406 1.65625 6.316406.898437l13.195313-4.640625 13.203125 4.640625c.742187.261719 1.523437.394531 2.3125.394531 1.46875 0 2.902344-.445312 4.113281-1.285156 1.867187-1.304687 2.992187-3.433594 3.015625-5.714844v-17.285156h20v85h-85zm-65 0h17v7.410156l-6.371094-2.183593c-1.460937-.523438-3.0625-.523438-4.523437 0l-6.105469 2.183593zm-34 0h20v17.285156c-.089844 2.242188.945312 4.382813 2.757812 5.707032 1.8125 1.324218 4.164063 1.660156 6.273438.898437l13.171875-4.640625 13.203125 4.640625c.738281.261719 1.515625.394531 2.296875.394531 1.496094 0 2.957031-.445312 4.195313-1.285156 1.890624-1.296875 3.042968-3.421875 3.101562-5.710937v-17.289063h20v85h-85zm-50 99h20v17.425782c.007812 2.273437 1.117188 4.402343 2.972656 5.714843 1.855469 1.308594 4.230469 1.644531 6.375.890625l13.222656-4.636718 13.21875 4.636718c2.128907.75 4.492188.414063 6.328126-.902344 1.832031-1.316406 2.910156-3.445312 2.882812-5.703124v-17.425782h20v85h-85zm0 0"/><path d="m34.855469 161.003906h31.074219c3.867187 0 7-3.132812 7-7 0-3.867187-3.132813-7-7-7h-31.074219c-3.863281 0-7 3.132813-7 7 0 3.867188 3.136719 7 7 7zm0 0"/><path d="m82.285156 168.003906h-47.429687c-3.863281 0-7 3.132813-7 7 0 3.867188 3.136719 7 7 7h47.429687c3.867188 0 7-3.132812 7-7 0-3.867187-3.132812-7-7-7zm0 0"/><path d="m84.441406 62.003906h31.074219c3.867187 0 7-3.132812 7-7 0-3.867187-3.132813-7-7-7h-31.074219c-3.867187 0-7 3.132813-7 7 0 3.867188 3.132813 7 7 7zm0 0"/><path d="m131.871094 68.003906h-47.429688c-3.867187 0-7 3.132813-7 7 0 3.867188 3.132813 7 7 7h47.429688c3.867187 0 7-3.132812 7-7 0-3.867187-3.132813-7-7-7zm0 0"/><path d="m183.613281 62.003906h31.074219c3.867188 0 7-3.132812 7-7 0-3.867187-3.132812-7-7-7h-31.074219c-3.867187 0-7 3.132813-7 7 0 3.867188 3.132813 7 7 7zm0 0"/><path d="m231.042969 68.003906h-47.429688c-3.867187 0-7 3.132813-7 7 0 3.867188 3.132813 7 7 7h47.429688c3.863281 0 7-3.132812 7-7 0-3.867187-3.136719-7-7-7zm0 0"/></svg>