<svg height="457pt" viewBox="0 0 457.92284 457" width="457pt" xmlns="http://www.w3.org/2000/svg"><path d="m143.261719 230.421875h171.398437c3.976563-.097656 7.179688-3.28125 7.300782-7.257813v-59.066406c0-15.992187-13.308594-28.675781-29.300782-28.675781h-127.398437c-15.992188 0-29.300781 12.683594-29.300781 28.675781v59.066406c.121093 3.976563 3.328124 7.160157 7.300781 7.257813zm164.699219-66.324219v52.324219h-72v-67h56.699218c8.273438 0 15.300782 6.40625 15.300782 14.675781zm-158 0c0-8.269531 7.03125-14.675781 15.300781-14.675781h56.699219v67h-72zm0 0"/><path d="m162.171875 312.089844c15.847656 0 28.699219-12.847656 28.699219-28.699219s-12.851563-28.699219-28.699219-28.699219c-15.851563 0-28.703125 12.847656-28.703125 28.699219.019531 15.84375 12.859375 28.683594 28.703125 28.699219zm0-43.398438c8.117187 0 14.699219 6.582032 14.699219 14.699219 0 8.121094-6.582032 14.699219-14.699219 14.699219-8.121094 0-14.703125-6.578125-14.703125-14.699219.011719-8.113281 6.585938-14.691406 14.703125-14.699219zm0 0"/><path d="m295.753906 254.691406c-15.851562 0-28.703125 12.847656-28.703125 28.699219s12.851563 28.699219 28.703125 28.699219c15.847656 0 28.699219-12.847656 28.699219-28.699219-.019531-15.84375-12.859375-28.679687-28.699219-28.699219zm0 43.398438c-8.121094 0-14.703125-6.578125-14.703125-14.699219 0-8.117187 6.582031-14.699219 14.703125-14.699219 8.117188 0 14.699219 6.582032 14.699219 14.699219-.011719 8.117187-6.585937 14.691406-14.699219 14.699219zm0 0"/><path d="m228.960938.460938c-92.605469 0-176.09375 55.785156-211.53125 141.34375-35.441407 85.554687-15.851563 184.035156 49.632812 249.519531 89.414062 89.414062 234.382812 89.414062 323.800781 0 89.414063-89.417969 89.414063-234.386719 0-323.800781-42.847656-43.082032-101.144531-67.226563-161.902343-67.0625zm-119.007813 408.207031 30.570313-56.246094h176.875l30.570312 56.246094c-72.128906 47.828125-165.886719 47.828125-238.015625 0zm186.007813-310.246094h-134v-16h134zm30.714843 14c5.871094-.089844 11.535157 2.179687 15.722657 6.292969 4.1875 4.117187 6.550781 9.738281 6.5625 15.609375v181.449219c0 12.316406-9.96875 22.648437-22.285157 22.648437h-3.128906c-1.277344-1-3.070313-1-4.347656 0h-180.472657c-1.277343-1-3.074218-1-4.351562 0h-2.773438c-12.449218-.136719-22.507812-10.199219-22.640624-22.648437v-181.449219c0-12.316407 10.324218-21.902344 22.640624-21.902344zm54.285157 269c-6.753907 6.753906-13.945313 13.054687-21.523438 18.863281l-26.445312-48.742187c17.332031-3.097657 29.957031-18.164063 29.96875-35.769531v-181.449219c-.015626-9.585938-3.855469-18.765625-10.667969-25.503907-6.8125-6.738281-16.03125-10.484374-25.617188-10.398437h-16.714843v-23.285156c.089843-1.777344-.566407-3.511719-1.8125-4.785157-1.242188-1.277343-2.960938-1.976562-4.742188-1.929687h-148.890625c-1.777344-.046875-3.496094.652344-4.742187 1.929687-1.242188 1.273438-1.898438 3.007813-1.8125 4.785157v23.285156h-16.359376c-20.039062 0-36.640624 15.867187-36.640624 35.902344v181.449219c.09375 17.515624 12.605468 32.5 29.824218 35.710937l-26.375 48.800781c-7.566406-5.808594-14.746094-12.113281-21.488281-18.863281-83.945313-83.957031-83.9375-220.070313.019531-304.019531 83.960938-83.945313 220.074219-83.9375 304.019532.019531 83.945312 83.949219 83.945312 220.054687 0 304zm0 0"/></svg>